<svg width="228" height="228" viewBox="0 0 228 228" fill="none" xmlns="http://www.w3.org/2000/svg">
<g clip-path="url(#clip0_45_252)">
<path d="M169.212 213.785C168.364 214.234 168.435 214.377 169.247 213.964C169.498 213.861 169.727 213.714 169.924 213.529C169.924 213.379 169.924 213.379 169.212 213.785ZM170.922 212.859C170.516 213.194 170.516 213.194 171 212.973C171.179 212.889 171.343 212.776 171.485 212.638C171.485 212.446 171.37 212.489 170.922 212.859ZM172.033 212.189C171.627 212.524 171.627 212.524 172.111 212.303C172.291 212.218 172.455 212.102 172.596 211.962C172.596 211.783 172.482 211.819 172.033 212.189ZM173.159 211.527C172.753 211.862 172.753 211.862 173.223 211.634C173.487 211.491 173.707 211.342 173.707 211.299C173.707 211.121 173.593 211.156 173.159 211.527ZM174.676 210.522C173.9 211.042 173.629 211.377 174.342 211.007C174.819 210.715 175.631 210.073 175.489 210.073C175.182 210.187 174.926 210.38 174.669 210.522H174.676ZM106.54 0.0782479C106.02 0.113873 104.46 0.256373 103.092 0.370373C70.6871 3.30587 40.3703 20.7479 21.1541 47.6162C10.5348 62.3525 3.63203 79.4358 1.03312 97.4129C0.114 103.683 0 105.535 0 114.035C0 122.528 0.114 124.352 1.03312 130.622C7.239 173.451 37.7055 209.404 79.002 222.727C86.4334 225.1 94.221 226.739 103.092 227.743C106.54 228.114 121.453 228.114 124.901 227.743C140.234 226.033 153.18 222.25 165.991 215.716C167.958 214.719 168.328 214.455 168.064 214.234C161.815 205.973 155.619 197.673 149.475 189.332L131.257 164.73L108.435 130.922C100.844 119.602 93.1752 108.335 85.4287 97.1207C85.3504 97.1207 85.2506 112.147 85.2079 130.473C85.1295 162.571 85.1295 163.875 84.7234 164.616C84.3339 165.511 83.6361 166.237 82.7569 166.661C82.0515 166.996 81.4174 167.067 78.0473 167.067H74.1926L73.188 166.44C72.5588 166.036 72.0475 165.473 71.706 164.808L71.2215 163.804L71.2571 119.123L71.3355 74.4419L72.0409 73.5512C72.4914 73.0037 73.0459 72.5508 73.6725 72.2189C74.6059 71.77 74.9764 71.6987 78.831 71.6987C83.3554 71.6987 84.1035 71.8769 85.2934 73.1807C94.5383 86.9311 103.704 100.735 112.789 114.591C127.602 137.049 147.822 167.694 157.762 182.728L175.838 210.08L176.729 209.489C185.416 203.716 193.288 196.803 200.134 188.933C214.495 172.497 223.813 152.269 226.974 130.672C227.893 124.402 228.007 122.543 228.007 114.05C228.007 105.55 227.893 103.733 226.974 97.4627C220.768 54.6344 190.302 18.6816 149.005 5.35075C141.287 2.90631 133.343 1.2426 125.293 0.384623C123.134 0.163748 108.4 -0.0998771 106.547 0.0924979L106.54 0.0782479ZM153.188 69.0269C153.718 69.2872 154.19 69.6507 154.578 70.096C154.966 70.5413 155.261 71.0596 155.446 71.6204C155.638 72.2189 155.674 84.6092 155.639 112.518L155.56 152.589L148.514 141.759L141.424 130.922V101.83C141.424 82.9705 141.503 72.397 141.602 71.8769C141.951 70.6843 142.751 69.6746 143.832 69.0625C144.716 68.6136 145.058 68.578 148.585 68.578C151.884 68.578 152.439 68.6136 153.18 69.0269H153.188Z" fill="#303030"/>
</g>
<defs>
<clipPath id="clip0_45_252">
<rect width="228" height="228" fill="white"/>
</clipPath>
</defs>
</svg>
