<svg xmlns="http://www.w3.org/2000/svg" fill="none" viewBox="0 0 228 228" height="228" width="228">
<path fill="#1572B6" d="M42.0518 193.807L26.049 14.25H201.951L185.927 193.779L113.893 213.75L42.0518 193.807Z"></path>
<path fill="#33A9DC" d="M114 198.488L172.211 182.35L185.905 28.9346H114V198.488Z"></path>
<path fill="white" d="M114 93.9861H143.141L145.15 71.4355H114V49.4121H169.219L168.692 55.3187L163.284 116.009H114V93.9861Z"></path>
<path fill="#EBEBEB" d="M114.135 151.178L114.036 151.207L89.5114 144.581L87.9439 127.018H65.835L68.9201 161.595L114.028 174.121L114.135 174.092V151.178Z"></path>
<path fill="white" d="M141.267 115.076L138.617 144.566L114.057 151.192V174.106L159.201 161.595L159.536 157.876L163.362 115.076H141.267Z"></path>
<path fill="#EBEBEB" d="M114.078 49.4121V71.4355H60.8831L60.4414 66.4836L59.4367 55.3187L58.9095 49.4121H114.078ZM114 93.9861V116.009H89.7821L89.3404 111.058L88.3429 99.8927L87.8156 93.9861H114Z"></path>
</svg>
