<svg width="330" height="200" viewBox="0 0 330 200" fill="none" xmlns="http://www.w3.org/2000/svg">
<g clip-path="url(#clip0_45_306)">
<path d="M165 0.891602C121.067 0.891602 93.6072 22.859 82.6242 66.7924C99.0994 44.825 118.32 36.5874 140.287 42.0796C152.82 45.2125 161.779 54.306 171.695 64.37C187.848 80.7667 206.542 99.7428 247.376 99.7428C291.31 99.7428 318.769 77.7754 329.752 33.842C313.277 55.8094 294.056 64.047 272.089 58.5548C259.556 55.4219 250.598 46.3284 240.682 36.2644C224.528 19.8677 205.834 0.891602 165 0.891602ZM82.6242 99.7428C38.6908 99.7428 11.2313 121.71 0.24823 165.644C16.7234 143.676 35.9441 135.439 57.9114 140.931C70.4442 144.064 79.4025 153.157 89.3185 163.221C105.472 179.618 124.166 198.594 165 198.594C208.934 198.594 236.393 176.627 247.376 132.693C230.901 154.661 211.68 162.898 189.713 157.406C177.18 154.273 168.222 145.18 158.306 135.116C142.152 118.719 123.458 99.7428 82.6242 99.7428Z" fill="url(#paint0_linear_45_306)"/>
</g>
<defs>
<linearGradient id="paint0_linear_45_306" x1="-8.90539" y1="64.1564" x2="275.675" y2="228.24" gradientUnits="userSpaceOnUse">
<stop stop-color="#2298BD"/>
<stop offset="1" stop-color="#0ED7B5"/>
</linearGradient>
<clipPath id="clip0_45_306">
<rect width="329.51" height="198.217" fill="white" transform="translate(0.244995 0.891602)"/>
</clipPath>
</defs>
</svg>
