<?xml version="1.0" encoding="utf-8"?>
<!-- Generator: Adobe Illustrator 26.0.3, SVG Export Plug-In . SVG Version: 6.00 Build 0)  -->
<svg version="1.0" id="katman_1" xmlns="http://www.w3.org/2000/svg" xmlns:xlink="http://www.w3.org/1999/xlink" x="0px" y="0px"
	 viewBox="0 0 600 450" style="enable-background:new 0 0 600 450;" xml:space="preserve">
<style type="text/css">
	.st0{fill:#051720;}
</style>
<path class="st0" d="M271.6,249.8c-4.9,0.2-9.8-1.4-13.5-4.7c-3.3-3.2-5.1-7.6-5-12.2v-21.7h-7.5v-11.3h7.5v-13.5l14.1-1.5v15h7.5
	v11.3h-7.5v19.7c-0.2,2,0.4,4,1.6,5.6c1.2,1.2,2.8,1.8,4.4,1.6c1.3-0.1,2.6-0.3,3.8-0.6l2.9,10C277.5,249.1,274.6,249.9,271.6,249.8
	z"/>
<path class="st0" d="M301.3,205.3c3.4-3.6,8.1-5.7,13.1-5.6c1.6,0,3.2,0.1,4.7,0.4l-2.2,13.8c-2-1.7-4.5-2.5-7.1-2.4
	c-3.4,0.3-6.2,2.6-8.5,7.5v30.7h-14v-48.6l14-1.5V205.3z"/>
<path class="st0" d="M325.5,224.9c-0.6-13.2,9.7-24.4,23-25c0,0,0.1,0,0.1,0h1.9c7.3,0,13.2,2.4,17.5,7.1c4.4,4.9,6.8,11.3,6.6,17.9
	v5h-34.5c0.3,2.5,1.5,4.8,3.5,6.3c2,1.5,4.5,2.3,7.1,2.2c4.5,0.1,8.9-1.3,12.5-4l7.9,8.1c-3.7,5-10.6,7.5-20.6,7.5
	c-13.2,0.6-24.4-9.7-25-23c0,0,0-0.1,0-0.1L325.5,224.9L325.5,224.9z M357.5,213.5c-4.2-2.9-9.8-2.9-14,0c-2,1.5-3.1,3.9-2.9,6.3h20
	C360.8,217.4,359.6,215,357.5,213.5L357.5,213.5z"/>
<path class="st0" d="M399.6,217.9v31.9h-14v-48.6l14-1.5v4.6c3.3-2.9,7.6-4.6,12-4.6c6.3,0,11.2,1.9,14.5,5.7c3.2,3.7,5,8.4,5,13.2
	v31h-14v-27.5c0.1-2.8-0.7-5.6-2.5-7.8c-2-2-4.7-3.1-7.5-2.9C404.1,211.8,401.6,214,399.6,217.9z"/>
<path class="st0" d="M490.1,201.2v44.5c0.2,6.4-2,12.7-6.2,17.6c-4,4.6-9.7,7.3-15.7,7.5l-2.9,0.3c-9.7-0.1-17.2-2.9-22.5-8.2
	l6.5-7.5c3.9,2.7,8.6,4.3,13.4,4.6c5.3,0,9-1.3,10.9-3.8c1.8-2.4,2.8-5.3,2.8-8.2v-2.5c-3.7,3-8.3,4.6-13.1,4.6
	c-7.6,0-13.4-2.2-17.3-6.8c-4-4.6-5.7-10.6-5.7-18.2c0-7.3,2.1-13.4,6.3-18.1c4.3-4.7,10.1-7.1,17.8-7.1c5.7,0.3,9.7,1.9,12,4.6
	v-4.6L490.1,201.2z M476.1,229.3v-8.1c-0.7-5.6-4.1-8.8-10.6-9.8c-8.4,0.3-12.8,4.4-13.5,12.5c0.3,9.4,4.8,14.3,13.5,14.5
	C472,237.3,475.5,234.3,476.1,229.3z"/>
<path class="st0" d="M504.6,242.9c-4.8-4.8-7.5-11.4-7.3-18.2c0-14.1,11.5-25.6,25.6-25.5c14.1,0,25.5,11.4,25.5,25.5l0,0
	c-0.1,14.2-11.7,25.7-26,25.6c0,0,0,0,0,0C515.7,250.3,509.3,247.6,504.6,242.9L504.6,242.9z M522.7,238.2c3.5,0.1,6.9-1.3,9.3-3.8
	c2.4-2.6,3.6-6,3.5-9.6c0.1-3.5-1.2-6.9-3.5-9.6c-2.3-2.6-5.8-4-9.3-3.8c-3.5-0.1-6.9,1.3-9.3,3.8c-2.4,2.6-3.6,6-3.5,9.6
	c-0.1,3.5,1.2,6.9,3.5,9.6C515.8,237,519.2,238.3,522.7,238.2z"/>
<path class="st0" d="M149.5,170c-110.8,9.7-73.8,66.1-31.3,90.9c43.2,25.3,63.3,29.8,88.4-9.3C206.7,251.7,260.1,160.4,149.5,170z
	 M121.7,223.8c0-3.5,2.8-6.4,6.4-6.5c0,0,0.1,0,0.1,0H161c3.5,0,6.4,2.8,6.5,6.4c0,0,0,0.1,0,0.1c0,3.6-2.9,6.4-6.5,6.5h-32.8
	C124.7,230.3,121.8,227.5,121.7,223.8C121.7,223.9,121.7,223.9,121.7,223.8z M181.5,248.9h-44.1c-3.5,0-6.4-2.8-6.5-6.4
	c0,0,0-0.1,0-0.1c0-3.6,2.9-6.4,6.5-6.5h44.1c3.6,0,6.5,2.9,6.5,6.5C188,246,185.1,248.9,181.5,248.9
	C181.5,248.9,181.5,248.9,181.5,248.9z M181.5,211.8h-64.1c-3.5,0-6.4-2.8-6.5-6.4c0,0,0-0.1,0-0.1c0-3.6,2.9-6.4,6.5-6.5h63.9
	c3.5,0,6.4,2.8,6.5,6.4c0,0,0,0.1,0,0.1c0.1,3.5-2.7,6.4-6.1,6.5C181.7,211.8,181.6,211.8,181.5,211.8z"/>
</svg>
