<svg width="228" height="228" viewBox="0 0 228 228" fill="none" xmlns="http://www.w3.org/2000/svg">
<path d="M42.0517 193.807L26.0419 14.25H201.958L185.927 193.779L113.893 213.75L42.0517 193.807Z" fill="#E44F26"/>
<path d="M114 198.488L172.211 182.35L185.905 28.9346H114V198.488Z" fill="#F1662A"/>
<path d="M114 95.5247H84.8587L82.8495 72.9741H114V50.9507H58.7812L59.3085 56.8644L64.7164 117.548H114V95.5247ZM114 152.717L113.9 152.746L89.376 146.126L87.8085 128.563H65.6996L68.7848 163.134L113.9 175.66L114 175.631V152.717Z" fill="#EBEBEB"/>
<path d="M113.922 95.5247V117.548H141.039L138.489 146.112L113.922 152.738V175.652L159.073 163.134L159.401 159.415L164.573 101.438L165.115 95.5247H113.922ZM113.922 50.9507V72.9741H167.117L167.559 68.0293L168.563 56.8644L169.091 50.9507H113.922Z" fill="white"/>
</svg>
