<svg width="228" height="228" viewBox="0 0 228 228" fill="none" xmlns="http://www.w3.org/2000/svg">
<path d="M204.402 14.25H23.598C18.4352 14.25 14.25 18.4352 14.25 23.598V204.402C14.25 209.565 18.4352 213.75 23.598 213.75H204.402C209.565 213.75 213.75 209.565 213.75 204.402V23.598C213.75 18.4352 209.565 14.25 204.402 14.25Z" fill="#3178C6"/>
<path fill-rule="evenodd" clip-rule="evenodd" d="M129.996 169.283V191.142C133.967 193.102 138.2 194.482 142.564 195.239C147.607 196.17 152.726 196.628 157.854 196.607C162.852 196.631 167.839 196.127 172.731 195.104C177.124 194.216 181.315 192.525 185.093 190.116C188.601 187.852 191.492 184.752 193.508 181.096C197.118 173.524 197.594 164.834 194.833 156.914C193.668 153.952 191.932 151.248 189.725 148.955C187.355 146.517 184.663 144.415 181.723 142.706C178.339 140.724 174.823 138.977 171.2 137.477C168.35 136.294 165.785 135.144 163.505 134.028C161.479 133.059 159.541 131.917 157.712 130.615C156.279 129.611 155.034 128.361 154.035 126.925C153.172 125.62 152.723 124.085 152.746 122.521C152.727 121.082 153.128 119.668 153.9 118.453C154.739 117.181 155.857 116.119 157.17 115.346C158.775 114.401 160.522 113.721 162.343 113.33C164.579 112.833 166.864 112.594 169.155 112.618C171.081 112.624 173.004 112.762 174.912 113.031C176.971 113.309 179.009 113.731 181.011 114.292C183.046 114.856 185.037 115.571 186.967 116.429C188.84 117.264 190.631 118.271 192.318 119.436V99.0373C188.806 97.7086 185.164 96.7534 181.452 96.1873C176.97 95.5351 172.444 95.2278 167.915 95.2682C162.964 95.2415 158.027 95.8036 153.209 96.9425C148.854 97.9377 144.713 99.7067 140.982 102.165C137.517 104.473 134.656 107.579 132.639 111.221C130.501 115.266 129.444 119.794 129.568 124.367C129.41 130.414 131.402 136.322 135.19 141.039C139.837 146.27 145.696 150.279 152.254 152.717C155.247 153.952 158.037 155.161 160.626 156.344C162.962 157.383 165.207 158.615 167.338 160.027C169.057 161.145 170.566 162.556 171.798 164.195C172.881 165.682 173.456 167.479 173.437 169.318C173.447 170.697 173.093 172.053 172.411 173.251C171.653 174.539 170.588 175.618 169.311 176.393C167.714 177.367 165.966 178.07 164.139 178.474C161.758 179.006 159.324 179.257 156.885 179.222C152.1 179.213 147.352 178.369 142.856 176.728C138.16 175.033 133.804 172.512 129.996 169.283ZM93.2734 114.862H121.773V96.857H42.3083V114.862H70.68V195.047H93.2734V114.862Z" fill="white"/>
</svg>
