<svg width="228" height="223" viewBox="0 0 228 223" fill="none" xmlns="http://www.w3.org/2000/svg">
<path fill-rule="evenodd" clip-rule="evenodd" d="M114 0C51.015 0 0 51.015 0 114C0 164.445 32.6325 207.053 77.9475 222.158C83.6475 223.155 85.785 219.735 85.785 216.743C85.785 214.035 85.6425 205.057 85.6425 195.51C57 200.782 49.59 188.528 47.31 182.115C46.0275 178.838 40.47 168.72 35.625 166.013C31.635 163.875 25.935 158.603 35.4825 158.46C44.46 158.318 50.8725 166.725 53.01 170.145C63.27 187.387 79.6575 182.542 86.2125 179.55C87.21 172.14 90.2025 167.153 93.48 164.303C68.115 161.453 41.61 151.62 41.61 108.015C41.61 95.6175 46.0275 85.3575 53.295 77.3775C52.155 74.5275 48.165 62.8425 54.435 47.1675C54.435 47.1675 63.9825 44.175 85.785 58.8525C94.905 56.2875 104.595 55.005 114.285 55.005C123.975 55.005 133.665 56.2875 142.785 58.8525C164.587 44.0325 174.135 47.1675 174.135 47.1675C180.405 62.8425 176.415 74.5275 175.275 77.3775C182.543 85.3575 186.96 95.475 186.96 108.015C186.96 151.762 160.312 161.453 134.947 164.303C139.08 167.865 142.643 174.705 142.643 185.392C142.643 200.64 142.5 212.895 142.5 216.743C142.5 219.735 144.637 223.298 150.337 222.158C172.968 214.517 192.633 199.972 206.565 180.57C220.496 161.168 227.993 137.886 228 114C228 51.015 176.985 0 114 0Z" fill="#22334E"/>
</svg>
